<svg xmlns="http://www.w3.org/2000/svg" xmlns:xlink="http://www.w3.org/1999/xlink" width="1000" zoomAndPan="magnify" viewBox="0 0 750 749.999995" height="1000" preserveAspectRatio="xMidYMid meet" version="1.0"><path fill="#ffffff" d="M 220.398438 612.914062 L 566.289062 612.914062 C 589.089844 612.914062 610.882812 603.535156 626.519531 586.996094 L 683.148438 527.097656 C 709.800781 498.898438 700.773438 452.949219 665.414062 436.851562 L 661.917969 435.261719 C 636.546875 423.710938 624.601562 394.460938 634.671875 368.542969 C 649.769531 329.691406 615.617188 289.632812 574.699219 298.199219 L 549.765625 303.421875 C 512.894531 311.140625 476.960938 286.84375 470.464844 249.863281 C 467.214844 231.351562 463.792969 211.972656 460.390625 192.816406 C 449.761719 132.984375 396.195312 120.984375 373.058594 177.203125 C 358.679688 212.152344 317.773438 236.160156 281.605469 224.859375 L 263.519531 219.210938 C 203.464844 200.445312 146.046875 254.621094 161.574219 315.398438 C 168.183594 341.277344 161.417969 368.730469 143.535156 388.617188 L 105.96875 430.382812 C 74.976562 464.839844 78.503906 517.960938 113.78125 548.054688 L 166.585938 593.097656 C 181.578125 605.886719 200.660156 612.914062 220.398438 612.914062 Z M 220.398438 612.914062 " fill-opacity="1" fill-rule="nonzero"/><path fill="#f5735d" d="M 640.617188 414.933594 L 643.777344 431.550781 L 640.617188 448.957031 C 632.457031 450.011719 615.820312 452.121094 614.558594 452.121094 C 613.292969 452.121094 604.027344 444.210938 599.550781 440.253906 L 604.289062 414.933594 C 591.023438 410.503906 586.652344 390.9375 586.128906 381.707031 C 582.96875 343.730469 608.238281 338.984375 612.976562 338.984375 C 617.714844 338.984375 647.726562 338.984375 651.675781 370.628906 C 654.835938 395.945312 645.621094 410.714844 640.617188 414.933594 Z M 640.617188 414.933594 " fill-opacity="1" fill-rule="nonzero"/><path fill="#092629" d="M 619.542969 414.933594 C 612.1875 417.390625 606.003906 415.957031 603.453125 414.933594 L 601.921875 424.144531 C 611.726562 422.917969 617.5 417.75 619.542969 414.933594 Z M 619.542969 414.933594 " fill-opacity="1" fill-rule="nonzero"/><path fill="#f9f0e4" d="M 621.664062 441.835938 C 637.457031 441.835938 644.039062 432.339844 646.144531 427.59375 L 651.671875 429.175781 L 616.921875 609.5625 L 526.894531 609.5625 L 579.804688 438.671875 L 597.96875 427.59375 L 600.339844 427.59375 C 601.394531 432.339844 605.867188 441.835938 621.664062 441.835938 Z M 621.664062 441.835938 " fill-opacity="1" fill-rule="nonzero"/><path fill="#092629" d="M 645.257812 425.695312 L 644.703125 426.953125 C 642.765625 431.308594 636.65625 440.253906 621.664062 440.253906 C 614.105469 440.253906 609.4375 437.992188 606.542969 435.328125 C 603.617188 432.640625 602.359375 429.402344 601.882812 427.25 L 601.609375 426.011719 L 597.527344 426.011719 L 578.476562 437.628906 L 524.75 611.144531 L 618.226562 611.144531 L 653.5 428.054688 Z M 599.121094 429.175781 C 599.867188 431.675781 601.40625 434.898438 604.40625 437.660156 C 607.960938 440.929688 613.425781 443.417969 621.664062 443.417969 C 637.003906 443.417969 644.1875 434.835938 646.988281 429.480469 L 649.847656 430.300781 L 615.621094 607.980469 L 529.039062 607.980469 L 581.140625 439.710938 L 598.414062 429.175781 Z M 599.121094 429.175781 " fill-opacity="1" fill-rule="evenodd"/><path fill="#8c0f24" d="M 620.082031 521.742188 C 624.507812 493.261719 639.828125 446.582031 646.933594 426.800781 C 660.359375 429.175781 690.210938 438.355469 702.214844 456.074219 C 714.21875 473.796875 730.382812 532.554688 736.964844 559.71875 C 744.070312 584.246094 744.070312 611.144531 717.222656 611.144531 L 595.601562 611.144531 C 582.964844 586.617188 586.914062 574.75 590.863281 570.003906 C 594.023438 566.207031 608.039062 563.148438 614.648438 562.09375 C 616.367188 547.921875 618.257812 533.503906 620.082031 521.742188 Z M 620.082031 521.742188 " fill-opacity="1" fill-rule="nonzero"/><path fill="#8c0f24" d="M 568.753906 521.742188 C 573.808594 490.097656 590.867188 445.261719 598.761719 426.800781 C 589.546875 427.332031 567.960938 431.707031 555.328125 445 C 539.53125 461.613281 514.261719 523.324219 509.523438 529.65625 C 500.046875 540.730469 427.332031 570.226562 425.8125 575.542969 C 419.492188 584.246094 426.597656 607.1875 434.496094 611.144531 L 558.488281 611.144531 C 559.800781 594.003906 563.699219 553.390625 568.753906 521.742188 Z M 568.753906 521.742188 " fill-opacity="1" fill-rule="nonzero"/><path fill="#092629" d="M 664.308594 550.226562 L 652.460938 501.964844 L 655.621094 549.433594 L 596.960938 564.304688 C 592.546875 565.421875 588.507812 568.171875 587.226562 572.546875 C 583.261719 586.085938 589.28125 601.761719 594.023438 607.1875 C 589.1875 601.652344 589.285156 574.75 594.8125 570.796875 C 599.234375 567.632812 654.042969 557.347656 680.894531 552.597656 Z M 664.308594 550.226562 " fill-opacity="1" fill-rule="nonzero"/><path fill="#092629" d="M 546.640625 489.304688 L 517.417969 611.144531 L 504.785156 611.144531 Z M 546.640625 489.304688 " fill-opacity="1" fill-rule="nonzero"/><path fill="#f5735d" d="M 538.742188 611.144531 C 538.742188 589.625 570.59375 583.191406 586.125 582.664062 C 586.125 593.421875 591.652344 604.023438 596.390625 611.144531 Z M 538.742188 611.144531 " fill-opacity="1" fill-rule="nonzero"/><path fill="#f5735d" d="M 385.535156 611.144531 C 385.535156 592.015625 410.613281 585.503906 424.230469 585.035156 C 424.230469 594.601562 430.476562 606.691406 433.707031 611.144531 Z M 385.535156 611.144531 " fill-opacity="1" fill-rule="nonzero"/><path fill="#092629" d="M 645.359375 374.585938 C 648.515625 383.445312 639.828125 388.828125 635.089844 390.410156 L 642.988281 430.757812 L 644.566406 427.59375 C 662.730469 429.175781 679.578125 437.089844 686.421875 441.835938 C 690.371094 417.308594 675.367188 407.023438 666.679688 388.035156 C 657.992188 369.046875 665.101562 324.742188 620.875 324.742188 C 585.496094 324.742188 580.335938 356.386719 582.179688 372.210938 C 597.972656 367.78125 607.1875 351.378906 609.820312 343.730469 C 611.398438 347.6875 624.824219 383.289062 629.5625 374.585938 C 634.300781 365.882812 641.410156 363.511719 645.359375 374.585938 Z M 645.359375 374.585938 " fill-opacity="1" fill-rule="nonzero"/><path fill="#092629" d="M 571.121094 434.714844 C 581.863281 423.953125 586.128906 399.113281 586.917969 388.035156 C 589.445312 406.390625 599.554688 413.617188 604.292969 414.933594 L 601.921875 427.59375 C 588.023438 426.960938 575.597656 432.078125 571.121094 434.714844 Z M 571.121094 434.714844 " fill-opacity="1" fill-rule="nonzero"/><path fill="#092629" d="M 706.164062 611.144531 C 709.953125 585.828125 729.066406 569.738281 738.542969 565.257812 C 743.664062 585.945312 742.492188 611.144531 720.378906 611.144531 Z M 706.164062 611.144531 " fill-opacity="1" fill-rule="nonzero"/><path fill="#f9f0e4" d="M 294.023438 184.480469 L 204.65625 184.480469 C 202.652344 184.480469 201.023438 186.054688 201.023438 187.992188 L 201.023438 233.132812 C 201.023438 235.070312 202.652344 236.644531 204.65625 236.644531 L 272.386719 236.644531 C 273.109375 236.644531 273.816406 236.855469 274.417969 237.246094 L 291.988281 248.710938 C 294.402344 250.285156 297.652344 248.613281 297.652344 245.796875 L 297.652344 187.992188 C 297.652344 186.054688 296.027344 184.480469 294.023438 184.480469 Z M 294.023438 184.480469 " fill-opacity="1" fill-rule="nonzero"/><path fill="#092629" d="M 199.8125 187.992188 C 199.8125 185.40625 201.980469 183.308594 204.65625 183.308594 L 294.019531 183.308594 C 296.695312 183.308594 298.863281 185.40625 298.863281 187.992188 L 298.863281 245.796875 C 298.863281 249.550781 294.53125 251.78125 291.3125 249.679688 L 273.738281 238.214844 C 273.339844 237.957031 272.867188 237.816406 272.386719 237.816406 L 204.65625 237.816406 C 201.980469 237.816406 199.8125 235.71875 199.8125 233.132812 Z M 204.65625 185.648438 C 203.316406 185.648438 202.234375 186.699219 202.234375 187.992188 L 202.234375 233.132812 C 202.234375 234.425781 203.316406 235.476562 204.65625 235.476562 L 272.386719 235.476562 C 273.347656 235.476562 274.292969 235.753906 275.09375 236.273438 L 292.667969 247.738281 C 294.273438 248.789062 296.441406 247.671875 296.441406 245.796875 L 296.441406 187.992188 C 296.441406 186.699219 295.359375 185.648438 294.019531 185.648438 Z M 204.65625 185.648438 " fill-opacity="1" fill-rule="evenodd"/><path fill="#8c0f24" d="M 227.992188 210.019531 C 227.992188 212.71875 225.726562 214.910156 222.933594 214.910156 C 220.140625 214.910156 217.878906 212.71875 217.878906 210.019531 C 217.878906 207.320312 220.140625 205.128906 222.933594 205.128906 C 225.726562 205.128906 227.992188 207.320312 227.992188 210.019531 Z M 227.992188 210.019531 " fill-opacity="1" fill-rule="nonzero"/><path fill="#8c0f24" d="M 254.957031 210.019531 C 254.957031 212.71875 252.695312 214.910156 249.902344 214.910156 C 247.109375 214.910156 244.84375 212.71875 244.84375 210.019531 C 244.84375 207.320312 247.109375 205.128906 249.902344 205.128906 C 252.695312 205.128906 254.957031 207.320312 254.957031 210.019531 Z M 254.957031 210.019531 " fill-opacity="1" fill-rule="nonzero"/><path fill="#8c0f24" d="M 281.921875 210.019531 C 281.921875 212.71875 279.660156 214.910156 276.867188 214.910156 C 274.074219 214.910156 271.808594 212.71875 271.808594 210.019531 C 271.808594 207.320312 274.074219 205.128906 276.867188 205.128906 C 279.660156 205.128906 281.921875 207.320312 281.921875 210.019531 Z M 281.921875 210.019531 " fill-opacity="1" fill-rule="nonzero"/><path fill="#8c0f24" d="M 512.242188 202.210938 L 520.449219 212.617188 C 520.949219 213.25 521.761719 213.554688 522.558594 213.40625 L 532.699219 211.523438 C 534.882812 211.117188 536.199219 213.835938 534.515625 215.265625 L 526.542969 222.042969 C 525.960938 222.539062 525.6875 223.300781 525.824219 224.050781 L 527.820312 235.226562 C 528.195312 237.328125 525.585938 238.628906 524.105469 237.074219 L 515.917969 228.488281 C 515.4375 227.984375 514.742188 227.738281 514.046875 227.832031 L 504.574219 229.109375 C 502.4375 229.398438 501.230469 226.765625 502.851562 225.363281 L 509.898438 219.273438 C 510.464844 218.785156 510.734375 218.039062 510.613281 217.304688 L 508.390625 203.878906 C 508.027344 201.6875 510.863281 200.457031 512.242188 202.210938 Z M 512.242188 202.210938 " fill-opacity="1" fill-rule="nonzero"/><path fill="#8c0f24" d="M 566.683594 250.359375 L 566.179688 254.09375 C 566.070312 254.890625 566.421875 255.679688 567.085938 256.140625 L 568.835938 257.351562 C 570.660156 258.613281 569.609375 261.453125 567.390625 261.25 L 565.125 261.042969 C 564.359375 260.972656 563.613281 261.308594 563.164062 261.925781 L 561.257812 264.53125 C 560 266.253906 557.25 265.3125 557.332031 263.1875 L 557.46875 259.648438 C 557.496094 258.957031 557.183594 258.292969 556.628906 257.867188 L 554.949219 256.582031 C 553.242188 255.269531 554.308594 252.558594 556.464844 252.738281 L 558.421875 252.90625 C 559.167969 252.96875 559.898438 252.640625 560.347656 252.046875 L 562.789062 248.792969 C 564.128906 247.011719 566.980469 248.160156 566.683594 250.359375 Z M 566.683594 250.359375 " fill-opacity="1" fill-rule="nonzero"/><path fill="#092629" d="M 298.480469 607.609375 L 306.863281 514.703125 L 481.289062 509.445312 L 492.191406 607.609375 Z M 298.480469 607.609375 " fill-opacity="1" fill-rule="nonzero"/><path fill="#f5735d" d="M 468.625 551.078125 C 471.015625 547.265625 472.941406 541.226562 473.605469 538.683594 C 481.566406 535.183594 497.09375 529.335938 495.503906 533.914062 C 493.511719 539.636719 496.496094 554.894531 495.503906 560.617188 C 494.507812 566.339844 482.5625 567.292969 478.582031 567.292969 C 474.601562 567.292969 471.613281 567.292969 470.617188 563.476562 C 469.621094 559.664062 465.640625 555.847656 468.625 551.078125 Z M 468.625 551.078125 " fill-opacity="1" fill-rule="nonzero"/><path fill="#f9f0e4" d="M 216.980469 264.824219 L 225.550781 326.089844 C 225.679688 326.996094 226.546875 327.605469 227.445312 327.425781 L 260.382812 320.71875 C 261.195312 320.550781 261.746094 319.789062 261.640625 318.96875 L 253.847656 257.695312 C 253.734375 256.785156 252.863281 256.164062 251.960938 256.34375 L 218.246094 263.054688 C 217.417969 263.21875 216.867188 263.996094 216.980469 264.824219 Z M 216.980469 264.824219 " fill-opacity="1" fill-rule="nonzero"/><path fill="#092629" d="M 251.652344 254.792969 C 253.460938 254.429688 255.199219 255.675781 255.429688 257.496094 L 263.21875 318.769531 C 263.429688 320.410156 262.332031 321.9375 260.703125 322.269531 L 227.765625 328.972656 L 227.449219 327.425781 L 227.765625 328.972656 C 225.96875 329.339844 224.230469 328.117188 223.976562 326.308594 L 215.410156 265.042969 C 215.175781 263.382812 216.285156 261.832031 217.933594 261.503906 Z M 252.273438 257.894531 L 218.558594 264.605469 L 227.128906 325.871094 L 260.066406 319.164062 Z M 252.273438 257.894531 " fill-opacity="1" fill-rule="evenodd"/><path fill="#f5735d" d="M 213.5 299.222656 C 209.402344 309.824219 209.402344 322.871094 213.5 330.207031 C 216.347656 335.308594 219.398438 342.417969 221.046875 346.515625 L 251.996094 338.363281 L 247.902344 323.683594 L 225.785156 328.578125 L 224.148438 318.792969 C 234.796875 315.53125 241.347656 313.898438 241.347656 299.222656 C 241.347656 286.566406 233.976562 285.351562 228.242188 286.175781 C 219.40625 287.453125 216.019531 292.699219 213.5 299.222656 Z M 213.5 299.222656 " fill-opacity="1" fill-rule="nonzero"/><path fill="#f5735d" d="M 375.6875 281.285156 L 370.769531 299.222656 C 368.3125 308.191406 375.6875 318.792969 396.164062 318.792969 C 412.546875 318.792969 415.003906 303.570312 414.183594 295.960938 L 410.089844 275.578125 C 414.183594 271.5 417.460938 269.054688 417.460938 249.488281 C 417.460938 225.023438 404.355469 216.058594 388.792969 216.058594 C 373.230469 216.058594 360.121094 229.089844 360.121094 252.746094 C 360.121094 273.132812 371.042969 279.652344 375.6875 281.285156 Z M 375.6875 281.285156 " fill-opacity="1" fill-rule="nonzero"/><path fill="#8c0f24" d="M 390.429688 309.824219 C 405.5 309.824219 413.089844 300.039062 415.003906 295.148438 C 429.472656 295.148438 462.183594 299.550781 477.253906 317.160156 C 496.09375 339.175781 520.613281 424.957031 523.890625 443.710938 C 526.511719 458.710938 519.910156 506.523438 517.726562 518.210938 L 511.5625 546.257812 L 467.535156 540.121094 L 467.535156 524.847656 C 405.992188 528.8125 339.574219 530.382812 305.242188 521.003906 C 298.175781 519.070312 296.773438 500.890625 297.046875 491.648438 C 285.855469 498.988281 259.859375 509.261719 245.445312 491.648438 C 227.425781 469.632812 214.316406 362.007812 215.957031 353.851562 C 217.59375 345.699219 250.359375 332.652344 256.09375 335.097656 C 260.679688 337.054688 272.75 359.289062 278.210938 370.160156 C 306.386719 307.539062 351.109375 294.058594 369.949219 295.148438 C 370.496094 300.039062 375.359375 309.824219 390.429688 309.824219 Z M 390.429688 309.824219 " fill-opacity="1" fill-rule="nonzero"/><path fill="#092629" d="M 335.546875 264.164062 C 323.097656 277.210938 323.808594 300.039062 325.71875 309.824219 C 346.738281 297.269531 362.941406 295.054688 369.914062 295.34375 C 369.914062 296.8125 370.914062 299.683594 371.390625 299.753906 L 375.6875 281.285156 C 366.960938 276.96875 360.941406 270.6875 360.121094 251.933594 C 360.316406 238.015625 366.949219 226.65625 370.769531 223.394531 C 383.875 222.582031 390.429688 238.886719 394.523438 245.410156 C 397.800781 250.628906 400.257812 249.757812 401.078125 248.671875 C 405.175781 238.886719 412.546875 238.070312 414.183594 248.671875 C 415.496094 257.152344 409.269531 261.445312 405.992188 262.53125 L 414.214844 296.8125 C 414.476562 296.800781 414.957031 295.566406 414.957031 295.34375 C 431.15625 294.898438 449.519531 300.355469 456.777344 303.300781 C 459.234375 277.210938 438.757812 268.242188 432.207031 251.933594 C 425.652344 235.625 434.664062 227.472656 428.109375 216.871094 C 423.25 209.015625 414.183594 207.902344 408.449219 206.273438 C 402.71875 204.640625 399.441406 198.117188 392.886719 194.859375 C 381.417969 190.78125 370.5 200.835938 367.492188 207.902344 C 365.582031 207.632812 360.121094 208.394531 353.570312 213.609375 C 334.730469 226.65625 351.109375 247.855469 335.546875 264.164062 Z M 335.546875 264.164062 " fill-opacity="1" fill-rule="nonzero"/><path fill="#092629" d="M 311.796875 388.097656 L 297.050781 492.464844 C 292.464844 495.074219 285.855469 496.8125 283.125 497.355469 C 290.332031 484.960938 305.242188 419.351562 311.796875 388.097656 Z M 311.796875 388.097656 " fill-opacity="1" fill-rule="nonzero"/><path fill="#092629" d="M 295.410156 492.464844 C 269.855469 476.808594 246.535156 476.703125 238.070312 478.605469 C 239.710938 485.398438 246.753906 499.640625 261.828125 502.25 C 276.898438 504.859375 290.496094 496.8125 295.410156 492.464844 Z M 295.410156 492.464844 " fill-opacity="1" fill-rule="nonzero"/><path fill="#092629" d="M 288.039062 395.433594 L 278.210938 369.34375 L 283.941406 359.558594 Z M 288.039062 395.433594 " fill-opacity="1" fill-rule="nonzero"/><path fill="#092629" d="M 462.507812 477.789062 C 463.820312 494.09375 461.964844 513.390625 460.871094 521.003906 L 470.699219 521.003906 L 470.699219 499.800781 C 470.699219 489.367188 459.777344 421.527344 454.320312 388.914062 C 456.5 411.742188 461.199219 461.480469 462.507812 477.789062 Z M 462.507812 477.789062 " fill-opacity="1" fill-rule="nonzero"/><path fill="#092629" d="M 519.484375 423.550781 C 516.210938 435.507812 513.992188 467.253906 521.855469 485.519531 C 524.3125 471.65625 529.171875 453.351562 519.484375 423.550781 Z M 519.484375 423.550781 " fill-opacity="1" fill-rule="nonzero"/><path fill="#092629" d="M 392.886719 280.46875 C 383.058594 283.078125 377.324219 282.101562 375.683594 281.285156 L 373.226562 290.253906 C 383.714844 291.558594 390.703125 284.273438 392.886719 280.46875 Z M 392.886719 280.46875 " fill-opacity="1" fill-rule="nonzero"/><path fill="#f9f0e4" d="M 452.023438 374.808594 C 452.023438 373.109375 453.425781 371.734375 455.15625 371.734375 L 551.152344 371.734375 C 553.921875 371.734375 555.328125 375 553.402344 376.953125 L 542.726562 387.757812 C 542.160156 388.332031 541.84375 389.101562 541.84375 389.898438 L 541.84375 417.875 C 541.84375 419.574219 540.441406 420.953125 538.710938 420.953125 L 455.15625 420.953125 C 453.425781 420.953125 452.023438 419.574219 452.023438 417.875 Z M 452.023438 374.808594 " fill-opacity="1" fill-rule="nonzero"/><path fill="#092629" d="M 450.980469 374.808594 C 450.980469 372.546875 452.851562 370.707031 455.15625 370.707031 L 551.152344 370.707031 C 554.84375 370.707031 556.71875 375.0625 554.152344 377.664062 L 543.476562 388.472656 C 543.097656 388.855469 542.886719 389.367188 542.886719 389.898438 L 542.886719 417.875 C 542.886719 420.140625 541.019531 421.976562 538.710938 421.976562 L 455.15625 421.976562 C 452.851562 421.976562 450.980469 420.140625 450.980469 417.875 Z M 455.15625 372.757812 C 454.003906 372.757812 453.066406 373.675781 453.066406 374.808594 L 453.066406 417.875 C 453.066406 419.007812 454.003906 419.925781 455.15625 419.925781 L 538.710938 419.925781 C 539.863281 419.925781 540.800781 419.007812 540.800781 417.875 L 540.800781 389.898438 C 540.800781 388.832031 541.222656 387.808594 541.976562 387.042969 L 552.652344 376.238281 C 553.9375 374.9375 552.996094 372.757812 551.152344 372.757812 Z M 455.15625 372.757812 " fill-opacity="1" fill-rule="evenodd"/><path fill="#8c0f24" d="M 477.089844 395.828125 C 477.089844 398.378906 474.988281 400.445312 472.390625 400.445312 C 469.792969 400.445312 467.691406 398.378906 467.691406 395.828125 C 467.691406 393.28125 469.792969 391.214844 472.390625 391.214844 C 474.988281 391.214844 477.089844 393.28125 477.089844 395.828125 Z M 477.089844 395.828125 " fill-opacity="1" fill-rule="nonzero"/><path fill="#8c0f24" d="M 502.15625 395.828125 C 502.15625 398.378906 500.050781 400.445312 497.457031 400.445312 C 494.863281 400.445312 492.757812 398.378906 492.757812 395.828125 C 492.757812 393.28125 494.863281 391.214844 497.457031 391.214844 C 500.050781 391.214844 502.15625 393.28125 502.15625 395.828125 Z M 502.15625 395.828125 " fill-opacity="1" fill-rule="nonzero"/><path fill="#8c0f24" d="M 527.222656 395.828125 C 527.222656 398.378906 525.117188 400.445312 522.523438 400.445312 C 519.925781 400.445312 517.824219 398.378906 517.824219 395.828125 C 517.824219 393.28125 519.925781 391.214844 522.523438 391.214844 C 525.117188 391.214844 527.222656 393.28125 527.222656 395.828125 Z M 527.222656 395.828125 " fill-opacity="1" fill-rule="nonzero"/><path fill="#f5735d" d="M 113.152344 404.789062 L 109.8125 422.402344 L 113.152344 440.855469 C 121.773438 441.972656 139.351562 444.210938 140.6875 444.210938 C 142.023438 444.210938 151.8125 435.824219 156.542969 431.628906 L 151.535156 404.789062 C 165.554688 400.09375 170.171875 379.351562 170.726562 369.566406 C 174.0625 329.304688 147.363281 324.273438 142.355469 324.273438 C 137.351562 324.273438 105.640625 324.273438 101.46875 357.824219 C 98.128906 384.664062 107.867188 400.316406 113.152344 404.789062 Z M 113.152344 404.789062 " fill-opacity="1" fill-rule="nonzero"/><path fill="#8c0f24" d="M 32.207031 612.792969 L 236.488281 612.792969 C 276.539062 612.792969 268.195312 567.050781 259.019531 544.601562 C 250.675781 518.601562 234.144531 481.113281 214.117188 449.242188 C 198.097656 423.746094 167.945312 417.929688 155.707031 418.207031 C 154.59375 423.242188 149.863281 433.304688 133.175781 433.304688 C 116.488281 433.304688 109.535156 423.242188 107.308594 418.207031 C 98.6875 418.207031 74.765625 422.90625 54.738281 441.695312 C 29.722656 465.160156 18.871094 518.78125 8.867188 568.238281 L 8.84375 568.339844 C 0.832031 607.929688 21.082031 613.910156 32.207031 612.792969 Z M 32.207031 612.792969 " fill-opacity="1" fill-rule="nonzero"/><path fill="#092629" d="M 243.996094 611.699219 C 243.996094 584.1875 256.234375 560.257812 261.519531 552.148438 C 264.023438 558.019531 268.53125 573.453125 266.527344 588.214844 C 264.523438 602.976562 254.011719 610.019531 243.996094 611.699219 Z M 243.996094 611.699219 " fill-opacity="1" fill-rule="nonzero"/><path fill="#f5735d" d="M 190.59375 597.441406 L 187.257812 577.3125 L 168.898438 584.859375 Z M 190.59375 597.441406 " fill-opacity="1" fill-rule="nonzero"/><path fill="#092629" d="M 88.117188 548.210938 L 100.632812 497.050781 L 98.132812 548.210938 L 159.585938 563.277344 C 164.046875 564.371094 168.105469 567.140625 169.539062 571.527344 C 174.246094 585.953125 168.875 602.796875 162.382812 608.597656 C 167.390625 601.398438 167.390625 574.210938 161.546875 570.015625 C 156.875 566.664062 98.964844 555.757812 70.59375 550.726562 Z M 88.117188 548.210938 " fill-opacity="1" fill-rule="nonzero"/><path fill="#092629" d="M 122.328125 388.015625 C 118.988281 407.476562 114.261719 409.542969 112.3125 408.144531 C 88.949219 393.046875 89.511719 344.8125 103.96875 328.46875 C 117.320312 313.371094 127.335938 319.242188 154.871094 312.53125 C 182.40625 305.824219 191.585938 317.5625 186.578125 332.660156 C 179.371094 354.390625 156.539062 342.726562 150.699219 345.242188 C 144.859375 347.757812 137.347656 354.46875 134.007812 367.886719 C 130.671875 381.308594 129.003906 378.789062 126.5 371.242188 C 123.996094 363.691406 117.320312 352.789062 112.3125 366.210938 C 108.308594 376.945312 117.320312 385.21875 122.328125 388.015625 Z M 122.328125 388.015625 " fill-opacity="1" fill-rule="nonzero"/><path fill="#f5735d" d="M 220.792969 612.792969 C 220.792969 589.980469 187.136719 583.160156 170.726562 582.597656 C 170.726562 594.007812 163.773438 607.480469 159.878906 612.792969 Z M 220.792969 612.792969 " fill-opacity="1" fill-rule="nonzero"/><path fill="#092629" d="M 7.050781 582.75 C 6.714844 598.84375 12.394531 612.792969 29.546875 612.792969 L 44.726562 612.792969 C 40.722656 585.957031 19.539062 569.738281 9.523438 564.984375 C 9.304688 566.070312 9.085938 567.152344 8.867188 568.234375 L 8.84375 568.339844 C 7.757812 573.710938 7.191406 578.492188 7.050781 582.75 Z M 7.050781 582.75 " fill-opacity="1" fill-rule="evenodd"/><path fill="#092629" d="M 133.851562 404.789062 C 141.859375 407.472656 148.59375 405.90625 151.375 404.789062 L 153.042969 414.855469 C 142.363281 413.511719 136.074219 407.863281 133.851562 404.789062 Z M 133.851562 404.789062 " fill-opacity="1" fill-rule="nonzero"/><path fill="#092629" d="M 241.496094 553.824219 L 187.253906 573.117188 C 201.648438 562.941406 209.671875 559.535156 223.972656 553.824219 L 215.628906 493.4375 L 230.648438 550.472656 Z M 241.496094 553.824219 " fill-opacity="1" fill-rule="nonzero"/><path fill="#f9f0e4" d="M 154.875 503.929688 L 239.449219 503.929688 C 241.351562 503.929688 242.890625 502.398438 242.890625 500.507812 L 242.890625 456.558594 C 242.890625 454.667969 241.351562 453.136719 239.449219 453.136719 L 175.351562 453.136719 C 174.664062 453.136719 173.996094 452.933594 173.429688 452.550781 L 156.796875 441.390625 C 154.511719 439.855469 151.433594 441.484375 151.433594 444.226562 L 151.433594 500.507812 C 151.433594 502.398438 152.976562 503.929688 154.875 503.929688 Z M 154.875 503.929688 " fill-opacity="1" fill-rule="nonzero"/><path fill="#092629" d="M 244.035156 500.507812 C 244.035156 503.027344 241.980469 505.070312 239.449219 505.070312 L 154.871094 505.070312 C 152.339844 505.070312 150.289062 503.027344 150.289062 500.507812 L 150.289062 444.226562 C 150.289062 440.570312 154.390625 438.402344 157.433594 440.445312 L 174.066406 451.605469 C 174.445312 451.859375 174.890625 451.996094 175.347656 451.996094 L 239.449219 451.996094 C 241.980469 451.996094 244.035156 454.039062 244.035156 456.558594 Z M 239.449219 502.789062 C 240.714844 502.789062 241.742188 501.769531 241.742188 500.507812 L 241.742188 456.558594 C 241.742188 455.296875 240.714844 454.277344 239.449219 454.277344 L 175.347656 454.277344 C 174.4375 454.277344 173.542969 454.003906 172.785156 453.496094 L 156.152344 442.335938 C 154.632812 441.3125 152.582031 442.398438 152.582031 444.226562 L 152.582031 500.507812 C 152.582031 501.769531 153.605469 502.789062 154.871094 502.789062 Z M 239.449219 502.789062 " fill-opacity="1" fill-rule="evenodd"/><path fill="#8c0f24" d="M 225.917969 485.113281 L 169.195312 485.113281 L 169.195312 487.394531 L 225.917969 487.394531 Z M 225.917969 469.152344 L 169.195312 469.152344 L 169.195312 471.429688 L 225.917969 471.429688 Z M 225.917969 469.152344 " fill-opacity="1" fill-rule="evenodd"/><path fill="#f9f0e4" d="M 1.710938 614.679688 C 1.710938 611.75 4.085938 609.378906 7.015625 609.378906 L 742.828125 609.378906 C 745.757812 609.378906 748.132812 611.75 748.132812 614.679688 L 748.132812 621.753906 C 748.132812 624.679688 745.757812 627.054688 742.828125 627.054688 L 7.015625 627.054688 C 4.085938 627.054688 1.710938 624.679688 1.710938 621.753906 Z M 1.710938 614.679688 " fill-opacity="1" fill-rule="nonzero"/><path fill="#092629" d="M -0.0585938 614.679688 C -0.0585938 610.773438 3.109375 607.609375 7.019531 607.609375 L 742.828125 607.609375 C 746.734375 607.609375 749.902344 610.773438 749.902344 614.679688 L 749.902344 621.753906 C 749.902344 625.65625 746.734375 628.824219 742.828125 628.824219 L 7.019531 628.824219 C 3.109375 628.824219 -0.0585938 625.65625 -0.0585938 621.753906 Z M 7.019531 611.144531 C 5.0625 611.144531 3.480469 612.726562 3.480469 614.679688 L 3.480469 621.753906 C 3.480469 623.707031 5.0625 625.289062 7.019531 625.289062 L 742.828125 625.289062 C 744.78125 625.289062 746.367188 623.707031 746.367188 621.753906 L 746.367188 614.679688 C 746.367188 612.726562 744.78125 611.144531 742.828125 611.144531 Z M 7.019531 611.144531 " fill-opacity="1" fill-rule="evenodd"/></svg>